# xmcd CD database file
#
# Track frame offsets:
#	150
#	10169
#	24641
#	40825
#	53772
#	67550
#	81311
#	94677
#	108349
#	124741
#	137587
#	150162
#	168814
#	184817
#	202807
#	213440
#	227130
#	237823
#	249264
#	266399
#	278290
#	295167
#	309841
#	325038
#
# Disc length: 4502 seconds
#
# Revision: 0
# Processed by: cddbd v1.5.2PL0 Copyright (c) Steve Scherf et al.
# Submitted via: CDex 2.20
#
DISCID=25119418
DTITLE=Trampske - Porta6_1975
DYEAR=1975
DGENRE=Country
TTITLE0=VyletSPanemGoddardem_Krakatit
TTITLE1=HrajJoe_Krakatit
TTITLE2=CoSiSeptaReka_Stopa
TTITLE3=HledamDevceNaNedeli_KamaradiZRokycan
TTITLE4=Odchazim_Rychtari
TTITLE5=PisenORodneZemi_Rychtari
TTITLE6=Kroky_Spirala
TTITLE7=HolkaCvok_Rohaci
TTITLE8=CesacuBavlnyBal_Verumka
TTITLE9=NeznamaPisen_Verumka
TTITLE10=Steblo_Dalibor
TTITLE11=Santiago_Grosaci
TTITLE12=Flasinetar_Ladici
TTITLE13=PristeSeTiRadsiVyhnu_Marsyas
TTITLE14=Kosilela_Vylety
TTITLE15=BluesNaDluh_Holatka
TTITLE16=SvestkovyKnedliky_Samotari
TTITLE17=InzeratNaDum_Foucmouk
TTITLE18=BaladaCeska_Oratori
TTITLE19=SvetVBarvach_Slzy
TTITLE20=FranckaAJohny_Formani
TTITLE21=ZpovedKataMydlare_Brontosauri
TTITLE22=JohankaZArku_Brontosauri
TTITLE23=Kamarad_Brontosauri
EXTD=YEAR: 1975
EXTT0=
EXTT1=
EXTT2=
EXTT3=
EXTT4=
EXTT5=
EXTT6=
EXTT7=
EXTT8=
EXTT9=
EXTT10=
EXTT11=
EXTT12=
EXTT13=
EXTT14=
EXTT15=
EXTT16=
EXTT17=
EXTT18=
EXTT19=
EXTT20=
EXTT21=
EXTT22=
EXTT23=
PLAYORDER=
